<?xml version="1.0" encoding="utf-8"?>
<!-- Generator: Adobe Illustrator 16.0.0, SVG Export Plug-In . SVG Version: 6.00 Build 0)  -->
<!DOCTYPE svg PUBLIC "-//W3C//DTD SVG 1.0//EN" "http://www.w3.org/TR/2001/REC-SVG-20010904/DTD/svg10.dtd">
<svg version="1.0" id="Layer_1" xmlns="http://www.w3.org/2000/svg" xmlns:xlink="http://www.w3.org/1999/xlink" x="0px" y="0px"
	 width="100px" height="100px" viewBox="0 0 100 100" enable-background="new 0 0 100 100" xml:space="preserve">
<path d="M86.667,40h-10v13.333l0.003,0.004h-0.003c0,3.682-2.985,6.666-6.667,6.666V60H30c-3.682,0-6.667-2.985-6.667-6.667V40h-10
	v6.667h3.334v6.666c0,7.363,5.97,13.334,13.333,13.334v6.666h16.667v10h-10V90h26.666v-6.667h-10v-10H70V66.67
	c7.363,0,13.333-5.97,13.333-13.333H83.33l0.003-0.004v-6.666h3.334V40z"/>
<path d="M63.333,16.667h-1.666V20c0,4.597-3.737,8.333-8.334,8.333h-6.666c-4.597,0-8.334-3.736-8.334-8.333v-3.333h-1.666
	c-3.682,0-6.667,2.982-6.667,6.667v30h40v-30C70,19.648,67.019,16.667,63.333,16.667z"/>
<path d="M56.667,20c0,1.833-1.501,3.333-3.334,3.333h-6.666c-1.833,0-3.334-1.501-3.334-3.333v-6.667
	c0-1.833,1.501-3.333,3.334-3.333h6.666c1.833,0,3.334,1.5,3.334,3.333V20z"/>
</svg>
